<svg width="263" height="259" viewBox="0 0 263 259" fill="none" xmlns="http://www.w3.org/2000/svg">
<g clip-path="url(#clip0_72_2709)">
<path d="M221.654 190.676C213.678 187.041 205.803 183.529 198.012 179.88C193.412 177.724 188.86 175.444 184.381 173.063C181.685 171.638 178.318 169.949 180.373 166.174C182.235 162.774 185.369 164.528 187.912 165.757C203.673 173.4 219.684 180.458 236.183 186.335C241.919 188.378 247.798 190.072 253.664 191.729C257.094 192.7 259.916 194.322 259.965 198.119C260.027 201.978 256.912 202.945 253.717 203.493C250.312 204.081 246.934 204.792 243.528 205.33C231.46 207.264 219.549 209.741 208.154 214.302C206.286 215.044 204.265 215.564 202.266 215.837C199.637 216.204 197.214 215.579 196.682 212.506C196.15 209.432 198.615 208.832 200.808 208.285C208.497 206.356 216.186 204.502 223.888 202.585C226.598 201.908 229.295 201.094 231.967 200.355C231.695 198.07 230.18 198.448 229.102 198.35C201.116 195.898 173.881 190.157 148.387 178.073C119.24 164.291 91.8191 147.753 67.7996 125.828C48.8147 108.478 31.6089 89.4477 13.8057 70.9569C10.9872 68.0238 8.52252 64.7768 5.88664 61.6558C4.00723 59.4158 2.87415 56.6592 5.46525 54.6964C8.36178 52.4948 10.622 54.5691 12.4823 57.1557C21.1633 69.2182 30.4053 80.7788 40.4058 91.8101C55.2424 108.149 70.8916 123.475 88.5374 136.797C111.919 154.426 136.994 168.927 164.402 179.267C181.852 185.85 199.915 189.74 218.44 191.595C219.456 191.681 220.476 192.039 221.654 190.676Z" fill="white"/>
</g>
<defs>
<clipPath id="clip0_72_2709">
<rect width="284" height="84" fill="white" transform="translate(58.5352) rotate(44.1748)"/>
</clipPath>
</defs>
</svg>
