<svg width="19" height="18" viewBox="0 0 19 18" fill="none" xmlns="http://www.w3.org/2000/svg">
<path d="M18.8244 9.30935C18.8267 4.49657 14.64 0.595965 9.47794 0.594135C4.31238 0.592304 0.125652 4.48994 0.123444 9.30272C0.121449 13.65 3.53799 17.2557 8.00898 17.9102L8.01177 11.8243L5.63733 11.8235L5.63849 9.30522L8.01293 9.30606L8.01381 7.38563C8.01481 5.20276 9.40918 3.99774 11.5458 3.9985C12.5691 3.99886 13.6402 4.16912 13.6402 4.16912L13.6392 6.3128L12.4581 6.31238C11.2987 6.31197 10.936 6.98429 10.9357 7.67307L10.935 9.30655L13.528 9.30747L13.1101 11.8256L10.9338 11.8248L10.931 17.9106C15.3991 17.2594 18.8225 13.656 18.8244 9.30881L18.8244 9.30935Z" fill="#193FF6"/>
</svg>
