<svg width="20" height="20" viewBox="0 0 20 20" fill="none" xmlns="http://www.w3.org/2000/svg">
<path fill-rule="evenodd" clip-rule="evenodd" d="M15.7384 4.99936C14.3052 3.60912 12.0124 3.54197 10.4972 4.80391C10.3528 4.92414 10.1759 4.98252 10.0001 4.9803C9.82425 4.98252 9.64736 4.92414 9.50299 4.80391C7.98778 3.54197 5.69501 3.60912 4.26176 4.99936C2.83933 6.3791 2.77428 8.56582 4.06054 10.0189C4.07943 10.0403 4.09692 10.0624 4.113 10.0852L10.0001 15.7956L15.8872 10.0852C15.9033 10.0624 15.9207 10.0403 15.9396 10.0189C17.2259 8.56582 17.1608 6.3791 15.7384 4.99936ZM17.1796 10.9138C18.9004 8.85386 18.7718 5.81879 16.7994 3.90557C14.9467 2.10855 12.0864 1.90091 10.0001 3.27784C7.91377 1.90091 5.05342 2.10855 3.2008 3.90557C1.22839 5.81879 1.09973 8.85386 2.82055 10.9138C2.85549 10.9744 2.89892 11.0304 2.95005 11.08L9.46961 17.4039C9.76516 17.6906 10.235 17.6906 10.5306 17.4039L17.0501 11.08C17.1012 11.0304 17.1447 10.9744 17.1796 10.9138Z" fill="#EE4D4D"/>
<path fill-rule="evenodd" clip-rule="evenodd" d="M14.5707 7.71461C14.5707 6.87303 13.8885 6.1908 13.0469 6.1908V4.66699C14.73 4.66699 16.0945 6.03146 16.0945 7.71461H14.5707Z" fill="#EE4D4D"/>
</svg>
