<svg width="24" height="24" viewBox="0 0 24 24" fill="none" xmlns="http://www.w3.org/2000/svg">
<path d="M20.25 11.25H3.75C3.55109 11.25 3.36032 11.3291 3.21967 11.4697C3.07902 11.6104 3 11.8011 3 12C3 12.199 3.07902 12.3897 3.21967 12.5304C3.36032 12.671 3.55109 12.75 3.75 12.75H20.25C20.4489 12.75 20.6397 12.671 20.7803 12.5304C20.921 12.3897 21 12.199 21 12C21 11.8011 20.921 11.6104 20.7803 11.4697C20.6397 11.3291 20.4489 11.25 20.25 11.25Z" fill="white"/>
<path d="M3.75 6.75005H20.25C20.4489 6.75005 20.6397 6.67103 20.7803 6.53038C20.921 6.38972 21 6.19896 21 6.00005C21 5.80113 20.921 5.61037 20.7803 5.46972C20.6397 5.32906 20.4489 5.25005 20.25 5.25005H3.75C3.55109 5.25005 3.36032 5.32906 3.21967 5.46972C3.07902 5.61037 3 5.80113 3 6.00005C3 6.19896 3.07902 6.38972 3.21967 6.53038C3.36032 6.67103 3.55109 6.75005 3.75 6.75005Z" fill="white"/>
<path d="M20.25 17.25H3.75C3.55109 17.25 3.36032 17.3291 3.21967 17.4697C3.07902 17.6104 3 17.8011 3 18C3 18.199 3.07902 18.3897 3.21967 18.5304C3.36032 18.671 3.55109 18.75 3.75 18.75H20.25C20.4489 18.75 20.6397 18.671 20.7803 18.5304C20.921 18.3897 21 18.199 21 18C21 17.8011 20.921 17.6104 20.7803 17.4697C20.6397 17.3291 20.4489 17.25 20.25 17.25Z" fill="white"/>
</svg>
