<svg width="24" height="24" viewBox="0 0 24 24" fill="none" xmlns="http://www.w3.org/2000/svg">
<path fill-rule="evenodd" clip-rule="evenodd" d="M1 7C1 5.34315 2.34315 4 4 4H20C21.6569 4 23 5.34315 23 7V17C23 18.6569 21.6569 20 20 20H4C2.34315 20 1 18.6569 1 17V7ZM4 6C3.44772 6 3 6.44772 3 7V17C3 17.5523 3.44772 18 4 18H20C20.5523 18 21 17.5523 21 17V7C21 6.44772 20.5523 6 20 6H4Z" fill="#F31D1D"/>
<path fill-rule="evenodd" clip-rule="evenodd" d="M21.9998 6.42762L21.6892 6.72374C21.6563 6.75506 21.6214 6.78411 21.5846 6.81068L12.5846 13.3107C12.2351 13.5631 11.7631 13.5631 11.4136 13.3107L2.41363 6.81068C2.35804 6.77053 2.30672 6.72476 2.26049 6.67411L1.99023 6.37798L3.4675 5.02977L3.66823 5.24971L11.9991 11.2665L20.3584 5.22922L20.6196 4.98013L21.9998 6.42762Z" fill="#F31D1D"/>
</svg>
