<svg width="100" height="122" viewBox="0 0 100 122" fill="none" xmlns="http://www.w3.org/2000/svg">
<path d="M38.9999 7.62489C38.666 7.6247 38.3354 7.69031 38.027 7.81797C37.7185 7.94563 37.4383 8.13284 37.2022 8.3689C36.9662 8.60495 36.779 8.88522 36.6513 9.19367C36.5236 9.50213 36.458 9.83273 36.4582 10.1666L36.4582 105.698L20.4636 89.703C20.2291 89.4602 19.9487 89.2666 19.6386 89.1334C19.3285 89.0002 18.995 88.9301 18.6575 88.9271C18.32 88.9242 17.9853 88.9885 17.673 89.1163C17.3606 89.2441 17.0768 89.4328 16.8382 89.6715C16.5995 89.9101 16.4108 90.1939 16.283 90.5063C16.1552 90.8186 16.0909 91.1533 16.0938 91.4908C16.0968 91.8283 16.1669 92.1618 16.3001 92.4719C16.4333 92.782 16.6269 93.0624 16.8697 93.2969L37.203 113.63C37.439 113.866 37.7191 114.054 38.0274 114.181C38.3358 114.309 38.6662 114.375 39 114.375C39.3337 114.375 39.6642 114.309 39.9725 114.181C40.2809 114.054 40.561 113.866 40.7969 113.63L61.1303 93.2969C61.5933 92.8175 61.8494 92.1755 61.8437 91.5091C61.8379 90.8427 61.5706 90.2052 61.0993 89.7339C60.6281 89.2627 59.9906 88.9954 59.3242 88.9896C58.6578 88.9838 58.0157 89.24 57.5364 89.703L41.5415 105.698L41.5415 10.1666C41.5417 9.83273 41.4761 9.50213 41.3485 9.19367C41.2208 8.88522 41.0336 8.60495 40.7975 8.3689C40.5615 8.13284 40.2812 7.94563 39.9728 7.81797C39.6643 7.69031 39.3337 7.6247 38.9999 7.62489Z" fill="white"/>
</svg>
