<svg width="247" height="288" viewBox="0 0 247 288" fill="none" xmlns="http://www.w3.org/2000/svg">
<g clip-path="url(#clip0_78_3449)">
<path d="M218.283 241.352C213.216 237.2 207.88 237.164 202.879 236.38C185.138 233.533 167.64 230.292 151.948 220.543C127.243 205.206 113.122 183.223 108.425 154.705C104.553 131.124 100.44 107.702 89.1392 86.022C76.8459 62.4344 59.1262 46.2084 33.0605 39.655C31.9101 39.3697 30.7106 39.1218 29.612 38.6674C26.7334 37.4769 24.342 35.6031 25.6631 32.1843C26.9198 28.9184 29.9107 28.4951 32.8883 29.7134C46.1616 35.1497 59.51 40.684 70.1764 50.6002C90.8038 69.7812 102.257 94.1666 108.622 121.175C112.613 138.14 113.669 155.873 120.323 172.122C134.01 205.623 159.695 223.291 195.321 227.142C200.542 227.706 205.807 228.055 211.03 228.721C216.326 229.383 217.032 227.393 214.757 223.099C209.622 213.406 204.503 203.701 199.494 193.937C197.654 190.346 196.134 186.564 194.576 182.835C193.528 180.348 193.892 177.946 196.426 176.655C199.354 175.167 201.631 176.688 202.91 179.308C204.374 182.306 205.4 185.509 206.692 188.586C212.522 202.539 220.148 215.454 229.12 227.624C239.856 242.201 238.442 249.73 219.404 250.671C202.861 251.49 188.695 259.038 175.735 268.873C173.023 270.947 170.042 272.839 167.612 269.933C164.728 266.468 167.693 263.708 170.566 261.743C182.927 253.325 196.505 247.548 210.967 243.84C213.183 243.284 215.314 242.38 218.283 241.352Z" fill="white"/>
</g>
<defs>
<clipPath id="clip0_78_3449">
<rect width="297.685" height="83.2605" fill="white" transform="translate(66.1328 0.219238) rotate(52.5878)"/>
</clipPath>
</defs>
</svg>
